
<svg xmlns="http://www.w3.org/2000/svg" viewBox="0 0 32 32">
  <g fill="none" fill-rule="evenodd">
    <circle cx="16" cy="16" r="16" fill="#8247E5"/>
    <path fill="#FFF" d="M21.09 16.74c-.44-.25-1.01-.25-1.45 0l-2.55 1.46-1.73 1-2.55 1.45c-.44.25-1.01.25-1.45 0l-2-1.16a1.5 1.5 0 01-.72-1.26v-2.3c0-.52.27-1 .73-1.26l1.97-1.12c.44-.25 1-.25 1.45 0l1.97 1.12c.44.26.73.74.73 1.26v1.46l1.73-1v-1.45c0-.51-.28-1-.73-1.25l-3.69-2.12c-.44-.25-1.01-.25-1.45 0L7.47 14.7a1.5 1.5 0 00-.73 1.25v4.24c0 .51.28 1 .73 1.25l3.69 2.13c.44.25 1 .25 1.45 0l2.55-1.46 1.73-1 2.55-1.46c.44-.25 1-.25 1.45 0l1.97 1.13c.44.25.73.74.73 1.25v2.3c0 .52-.28 1-.73 1.26l-1.97 1.12c-.44.25-1 .25-1.45 0l-1.97-1.12a1.5 1.5 0 01-.73-1.26v-1.46l-1.73 1v1.46c0 .51.28 1 .73 1.25l3.7 2.13c.43.25 1 .25 1.44 0l3.7-2.13c.44-.25.72-.74.72-1.25v-4.24c0-.51-.28-1-.73-1.25l-3.69-2.13z"/>
  </g>
</svg>
