
<svg xmlns="http://www.w3.org/2000/svg" viewBox="0 0 32 32">
  <defs>
    <linearGradient id="a" x1="10.86%" x2="89.14%" y1="21.35%" y2="78.65%">
      <stop offset="0%" stop-color="#9945FF"/>
      <stop offset="100%" stop-color="#14F195"/>
    </linearGradient>
  </defs>
  <circle cx="16" cy="16" r="16" fill="#000"/>
  <path fill="url(#a)" d="M22.71 11c-.15 0-.31.06-.42.17l-2.25 2.14-11.73 11.17-.42.41c-.12.11-.28.17-.43.17-.15 0-.3-.06-.42-.17a.58.58 0 010-.84L18.2 13.07 10.13 5.3l-.02-.02a.58.58 0 010-.83A.6.6 0 110.98 5c.14.13.34.19.53.15a.6.6 0 01.32-.09c.15 0 .3.06.42.17l2.25 2.14 11.73 11.17.42.4c.12.12.28.18.43.18.15 0 .3-.06.42-.17a.58.58 0 000-.84L16.95 8.93 25.02 1.16A.58.58 0 0124.17.3c-.2 0-.39.07-.54.2a.58.58 0 01-.83-.03.59.59 0 01-.08-.8.6.6 0 01-.33.1.58.58 0 01-.42-.17l-2.25-2.14c-.12-.11-.28-.17-.43-.17-.15 0-.3.06-.42.17L7.13 8.61l-.43.42a.58.58 0 01-.42.17.58.58 0 01-.42-.17.59.59 0 010-.84L16.95 5 10.12 1.3a.58.58 0 01-.17-.82.6.6 0 01.8-.12.58.58 0 01.82-.15.58.58 0 01.12.79c.2-.05.41-.02.58.1a.59.59 0 01.16.82l-.1.14c-.1.1-.23.16-.37.17h-.05a.58.58 0 01-.42-.17L8.55 4.2c-.12-.11-.28-.17-.43-.17-.15 0-.3.06-.42.17a.58.58 0 010 .84l2.25 2.14 11.73 11.17.42.4c.12.12.28.18.43.18.15 0 .3-.06.42-.17a.58.58 0 010-.84L11.87 6.93 19.94 9.7a.58.58 0 01.43.98.58.58 0 01-.64.12.58.58 0 01-.8.21.58.58 0 01-.22.8.57.57 0 01-.6.13.58.58 0 01-.76.3.58.58 0 01-.32.76.58.58 0 01-.77-.32l-.05-.14A.58.58 0 0117 11a.58.58 0 01-.77-.32.58.58 0 11-.4.74.4.58 0 01-.32-.76.58.58 0 01-.76-.33.58.58 0 01-.32-.76c-.17.07-.37.05-.53-.05a.58.58 0 01-.08-.82l.1-.13a.58.58 0 01.81-.11l.01-.01c.13.1.3.14.46.11a.58.58 0 01.64-.11.58.58 0 01.8-.2c.18-.16.45-.15.63 0a.58.58 0 01.2-.8.58.58 0 01.75.33c.2-.04.42.03.55.2l.56.53 7.05 6.72c.11.1.17.26.17.42 0 .16-.06.31-.17.42a.58.58 0 01-.42.17z"/>
</svg>
