
<svg xmlns="http://www.w3.org/2000/svg" viewBox="0 0 32 32">
  <g fill="none" fill-rule="evenodd">
    <circle cx="16" cy="16" r="16" fill="#2775CA"/>
    <path fill="#FFF" d="M16 6C10.48 6 6 10.48 6 16s4.48 10 10 10 10-4.48 10-10S21.52 6 16 6zm4.02 15.31c-.03.57-.56 1.03-1.14 1.03-.6 0-1.11-.43-1.14-1.03v-.5a3.49 3.49 0 01-1.93-.76c-.4-.35-.47-.96-.16-1.4.3-.4.85-.5 1.27-.23.34.21.72.34 1.08.34h1.24c.62 0 1.12-.46 1.15-1.06.03-.64-.51-1.2-1.15-1.2h-1.5c-1.79 0-3.24-1.34-3.32-3.03-.09-1.87 1.4-3.47 3.32-3.47h.08v-.5c.03-.57.56-1.03 1.14-1.03.6 0 1.11.43 1.14 1.03v.5a3.6 3.6 0 011.94.77c.4.34.46.96.16 1.38-.3.43-.86.53-1.3.24-.32-.22-.69-.35-1.03-.35h-1.24c-.61 0-1.12.46-1.15 1.06-.03.64.51 1.2 1.15 1.2h1.5c1.8 0 3.24 1.35 3.32 3.03.09 1.87-1.4 3.47-3.32 3.47h-.08v.5z"/>
  </g>
</svg>
